<svg width="8" height="16" viewBox="0 0 8 16" fill="none" xmlns="http://www.w3.org/2000/svg">
<path d="M5.91388 7.99508L0.287082 2.36828C0.0956943 2.17689 0.00319025 1.95361 0.00956988 1.69842C0.0159495 1.44324 0.114833 1.21996 0.30622 1.02857C0.497608 0.837181 0.720894 0.741487 0.976077 0.741487C1.23126 0.741487 1.45455 0.837181 1.64593 1.02857L7.54067 6.90417C7.69378 7.05728 7.80861 7.22953 7.88517 7.42091C7.96172 7.6123 8 7.80369 8 7.99508C8 8.18646 7.96172 8.37785 7.88517 8.56924C7.80861 8.76063 7.69378 8.93288 7.54067 9.08599L1.64593 14.9807C1.45454 15.1721 1.22807 15.2646 0.966506 15.2582C0.704944 15.2519 0.478468 15.153 0.287081 14.9616C0.0956932 14.7702 -8.91461e-07 14.5469 -8.69153e-07 14.2917C-8.46844e-07 14.0365 0.0956932 13.8133 0.287081 13.6219L5.91388 7.99508Z" fill="#1E1F23"/>
</svg>
