<svg width="8" height="16" viewBox="0 0 8 16" fill="none" xmlns="http://www.w3.org/2000/svg">
<path d="M5.91388 7.99532L0.287082 2.36853C0.0956943 2.17714 0.00319025 1.95385 0.00956988 1.69867C0.0159495 1.44349 0.114833 1.2202 0.30622 1.02881C0.497608 0.837426 0.720894 0.741731 0.976077 0.741731C1.23126 0.741731 1.45455 0.837426 1.64593 1.02881L7.54067 6.90441C7.69378 7.05752 7.80861 7.22977 7.88517 7.42116C7.96172 7.61255 8 7.80393 8 7.99532C8 8.18671 7.96172 8.3781 7.88517 8.56948C7.80861 8.76087 7.69378 8.93312 7.54067 9.08623L1.64593 14.981C1.45454 15.1724 1.22807 15.2649 0.966506 15.2585C0.704944 15.2521 0.478468 15.1532 0.287081 14.9618C0.0956932 14.7704 -8.91461e-07 14.5472 -8.69153e-07 14.292C-8.46844e-07 14.0368 0.0956932 13.8135 0.287081 13.6221L5.91388 7.99532Z" fill="#858585"/>
</svg>
