<svg width="16" height="20" viewBox="0 0 16 20" fill="none" xmlns="http://www.w3.org/2000/svg">
<path d="M15.7265 15.2291C15.6204 14.6311 15.196 14.0524 14.8874 13.5219C14.2122 12.3549 14.4051 11.0336 14.2605 9.76042C14.0579 7.32025 13.9904 4.49428 12.0035 2.76783C11.2319 2.10233 10.335 1.89014 9.46692 1.60079C9.19686 1.42718 9.08112 0.983512 8.74355 0.771323C8.47349 0.568779 8.12627 0.462686 7.77906 0.481975C7.09426 0.49162 6.68918 1.0028 6.37089 1.50434C6.03332 1.81298 5.52214 1.76475 5.06882 1.97694C4.14291 2.31452 3.36167 2.95108 2.84084 3.75161C1.18191 6.37504 1.72203 9.80864 1.17226 12.7407C0.93114 13.8692 -1.0075 15.5377 0.690016 16.3865C1.33623 16.6469 2.09818 16.5794 2.78297 16.5987C5.18456 16.5987 7.5958 16.5987 9.9974 16.5987C11.2898 16.5987 12.6015 16.6083 13.8168 16.5987C14.6173 16.618 15.8519 16.3286 15.7265 15.3159V15.2484V15.2291Z" fill="#14BC7E"/>
<path d="M9.7863 17.6019C8.35885 17.6019 6.88317 17.6019 5.45572 17.6019C5.09885 17.5536 5.29175 17.8719 5.3882 18.0745C5.78364 18.8075 6.50701 19.3187 7.31719 19.4826C8.0695 19.5887 8.87967 19.4826 9.49695 19.0197C9.88275 18.711 10.3361 18.2577 10.4807 17.7658C10.5193 17.4861 9.98884 17.6404 9.84417 17.6019H9.7863Z" fill="#14BC7E"/>
</svg>
