<svg width="21" height="18" viewBox="0 0 21 18" fill="none" xmlns="http://www.w3.org/2000/svg">
<path d="M2.5 18C1.95 18 1.47917 17.8042 1.0875 17.4125C0.695833 17.0208 0.5 16.55 0.5 16V2C0.5 1.45 0.695833 0.979167 1.0875 0.5875C1.47917 0.195833 1.95 0 2.5 0H18.5C19.05 0 19.5208 0.195833 19.9125 0.5875C20.3042 0.979167 20.5 1.45 20.5 2V16C20.5 16.55 20.3042 17.0208 19.9125 17.4125C19.5208 17.8042 19.05 18 18.5 18H2.5ZM2.5 16H18.5V2H2.5V16ZM5.5 14H15.5C15.7833 14 16.0208 13.9042 16.2125 13.7125C16.4042 13.5208 16.5 13.2833 16.5 13C16.5 12.7167 16.4042 12.4792 16.2125 12.2875C16.0208 12.0958 15.7833 12 15.5 12H5.5C5.21667 12 4.97917 12.0958 4.7875 12.2875C4.59583 12.4792 4.5 12.7167 4.5 13C4.5 13.2833 4.59583 13.5208 4.7875 13.7125C4.97917 13.9042 5.21667 14 5.5 14ZM5.5 10H7.5C7.78333 10 8.02083 9.90417 8.2125 9.7125C8.40417 9.52083 8.5 9.28333 8.5 9V5C8.5 4.71667 8.40417 4.47917 8.2125 4.2875C8.02083 4.09583 7.78333 4 7.5 4H5.5C5.21667 4 4.97917 4.09583 4.7875 4.2875C4.59583 4.47917 4.5 4.71667 4.5 5V9C4.5 9.28333 4.59583 9.52083 4.7875 9.7125C4.97917 9.90417 5.21667 10 5.5 10ZM11.5 10H15.5C15.7833 10 16.0208 9.90417 16.2125 9.7125C16.4042 9.52083 16.5 9.28333 16.5 9C16.5 8.71667 16.4042 8.47917 16.2125 8.2875C16.0208 8.09583 15.7833 8 15.5 8H11.5C11.2167 8 10.9792 8.09583 10.7875 8.2875C10.5958 8.47917 10.5 8.71667 10.5 9C10.5 9.28333 10.5958 9.52083 10.7875 9.7125C10.9792 9.90417 11.2167 10 11.5 10ZM11.5 6H15.5C15.7833 6 16.0208 5.90417 16.2125 5.7125C16.4042 5.52083 16.5 5.28333 16.5 5C16.5 4.71667 16.4042 4.47917 16.2125 4.2875C16.0208 4.09583 15.7833 4 15.5 4H11.5C11.2167 4 10.9792 4.09583 10.7875 4.2875C10.5958 4.47917 10.5 4.71667 10.5 5C10.5 5.28333 10.5958 5.52083 10.7875 5.7125C10.9792 5.90417 11.2167 6 11.5 6Z" fill="#9D9D9D"/>
</svg>
