<svg width="96" height="96" viewBox="0 0 96 96" fill="none" xmlns="http://www.w3.org/2000/svg">
<rect width="96" height="96" rx="10" fill="#14BC7E"/>
<path d="M43.5107 36.9225C43.9641 35.8173 44.2369 34.6058 44.2369 33.4226C44.2369 31.081 43.2627 28.9662 41.7005 27.4607C40.2127 26.026 38.1864 25.1404 35.9547 25.1404C33.7229 25.1404 31.7002 26.026 30.2088 27.4607C29.5854 28.0629 29.0576 28.7608 28.6466 29.5295C28.6431 29.5295 28.6395 29.5295 28.636 29.5259C25.4549 35.9342 22.2773 42.3424 19.0962 48.7507C17.9449 51.071 16.7901 53.3948 15.6246 55.7081C14.5123 57.9185 13.0918 60.0227 13.0918 62.5768C13.0918 67.1501 16.8007 70.8591 21.374 70.8591C23.1133 70.8591 24.8314 70.3029 26.2378 69.2827C27.2651 68.5352 27.9488 67.5185 28.6041 66.4558C30.0601 64.0859 31.2751 61.5956 32.5079 59.1088C33.4891 57.1286 34.4704 55.1519 35.4517 53.1717C38.1226 47.7801 41.2117 42.4912 43.5072 36.9296L43.5107 36.9225ZM28.4305 29.9652C28.4305 29.9652 28.427 29.9758 28.4235 29.9793C28.4235 29.9758 28.427 29.9687 28.4305 29.9652ZM29.6243 63.3385C29.6243 63.3385 29.6243 63.3137 29.6243 63.2995C29.6243 63.3137 29.6243 63.3243 29.6243 63.3385Z" fill="white"/>
<path d="M69.3486 36.9223C69.802 35.8171 70.0748 34.6056 70.0748 33.4224C70.0748 31.0809 69.1006 28.966 67.5384 27.4605C66.0506 26.0258 64.0243 25.1402 61.7926 25.1402C59.5608 25.1402 57.5381 26.0258 56.0467 27.4605C55.4233 28.0627 54.8954 28.7606 54.4845 29.5293C54.481 29.5293 54.4774 29.5293 54.4739 29.5257C51.2928 35.934 48.1152 42.3423 44.9341 48.7505C43.7828 51.0708 42.628 53.3947 41.4625 55.7079C40.2971 58.0211 38.9297 60.0226 38.9297 62.5767C38.9297 67.1499 42.6386 70.8589 47.2119 70.8589C48.9512 70.8589 50.6693 70.3027 52.0757 69.2825C53.103 68.535 53.7867 67.5184 54.442 66.4556C55.898 64.0857 57.113 61.5954 58.3458 59.1086C59.327 57.1284 60.3083 55.1517 61.2895 53.1715C63.9605 47.7799 67.0495 42.491 69.345 36.9294L69.3486 36.9223ZM54.2684 29.965C54.2684 29.965 54.2649 29.9756 54.2614 29.9792C54.2614 29.9756 54.2649 29.9685 54.2684 29.965ZM55.4622 63.3383C55.4622 63.3383 55.4622 63.3135 55.4622 63.2993C55.4622 63.3135 55.4622 63.3241 55.4622 63.3383Z" fill="white"/>
<path d="M73.896 70.8589C78.7616 70.8589 82.706 66.9145 82.706 62.0489C82.706 57.1832 78.7616 53.2388 73.896 53.2388C69.0303 53.2388 65.0859 57.1832 65.0859 62.0489C65.0859 66.9145 69.0303 70.8589 73.896 70.8589Z" fill="white"/>
</svg>
