<svg width="64" height="64" viewBox="0 0 64 64" fill="none" xmlns="http://www.w3.org/2000/svg">
<rect width="64" height="64" rx="9.88066" fill="#F3F3F3"/>
<path d="M39.084 31.8536H54.0708M54.0708 31.8536L47.6794 26.3438M54.0708 31.8536L47.6794 37.5838" stroke="#BDBCB8" stroke-width="2.11729" stroke-linecap="round"/>
<path d="M46.3574 16.4258H32.3991C30.8573 16.4258 29.6074 17.68 29.6074 19.2271V44.0388C29.6074 45.586 30.8573 46.8402 32.3991 46.8402H46.3574" stroke="#24C17C" stroke-width="3.52881" stroke-linecap="round"/>
<path d="M19.6543 34.0576C20.7287 34.0576 21.7663 34.1482 22.7453 34.3163C23.684 34.4775 24.3184 35.3257 24.3184 36.2782V43.4013C24.3184 44.5706 23.3704 45.5186 22.2011 45.5186H11.006C9.83661 45.5186 8.88867 44.5706 8.88867 43.4013V40.2285C8.8892 36.8207 13.7089 34.0577 19.6543 34.0576ZM19.9092 23.0381C21.7028 23.0381 23.2678 24.013 24.1063 25.461C24.2588 25.7243 24.3184 26.0286 24.3184 26.3329V29.4415C24.3184 29.7458 24.2588 30.0501 24.1063 30.3134C23.2678 31.7613 21.7028 32.7353 19.9092 32.7354C17.2313 32.7353 15.0605 30.5646 15.0605 27.8867C15.0608 25.2091 17.2315 23.0381 19.9092 23.0381Z" fill="#312E2F"/>
</svg>
