<svg width="28" height="28" viewBox="0 0 28 28" fill="none" xmlns="http://www.w3.org/2000/svg">
<path d="M22.8827 0H5.11732C2.2911 0 0 2.2911 0 5.11732V22.8827C0 25.7089 2.2911 28 5.11732 28H22.8827C25.7089 28 28 25.7089 28 22.8827V5.11732C28 2.2911 25.7089 0 22.8827 0Z" fill="#F3F3F3"/>
<path d="M19.3674 21.0875C14.7342 24.73 7.70256 22.7411 5.66159 17.2141C2.64483 9.32586 11.5834 2.01115 18.7491 6.37614C24.0601 9.63126 24.3581 17.3035 19.4195 21.0428L19.3674 21.08V21.0875ZM20.0452 18.3761C24.1122 12.6406 18.7491 4.94597 11.9484 6.89011C7.50889 8.10426 5.22211 13.4823 7.4642 17.5046C9.95209 22.2495 16.8795 22.8231 20.008 18.4283L20.0452 18.3761Z" fill="#14BC7E"/>
<path d="M20 18.3614C17.6014 22.0038 12.216 22.4061 9.03534 19.5606C5.60145 16.4917 5.75042 10.5476 9.74297 8.03734C16.5288 3.77664 24.3128 11.8064 20 18.3688V18.3614ZM9.81746 9.60904C9.81746 9.60904 9.48971 9.59414 9.73552 10.0262L12.5437 13.1323C12.648 13.3707 12.3128 13.9815 12.3575 14.3986L8.27556 15.3744L8.08934 15.5979L12.432 14.6221C12.7672 15.6277 14.0037 16.015 14.8603 15.367C15.2923 15.0467 15.7318 14.1751 15.5754 13.6463L17.8547 12.2236C18.2495 11.9107 17.8845 11.2999 17.4227 11.4191L15.121 12.8269C15.121 12.8269 14.3687 12.5364 14.2644 12.529C14.0484 12.5066 13.3482 12.5737 13.1769 12.6779L10.2271 9.37813C9.8994 9.16211 9.9143 9.47496 9.81001 9.60904H9.81746Z" fill="#F3F3F3"/>
<path d="M19.9999 18.3613C24.3202 11.8063 16.5288 3.7691 9.74292 8.02981L10.3388 7.54564C14.1824 5.37804 19.0837 7.01677 20.8342 11.054C21.8472 13.4004 21.6163 16.3501 19.9999 18.3613Z" fill="#BDBCB8"/>
<path d="M9.8176 9.60901C9.78781 9.78033 9.87719 9.83992 9.96658 9.95165C10.8306 11.0168 11.8809 11.9554 12.7375 13.0206C12.961 13.1323 13.1621 12.6928 13.1845 12.6779C13.3558 12.5736 14.056 12.5066 14.272 12.5289C14.3837 12.5438 15.0988 12.7971 15.1286 12.8269C15.136 12.8343 15.1286 12.9684 15.1733 13.0429C15.2403 13.1397 15.5606 13.5941 15.583 13.6537C15.7394 14.1826 15.2999 15.0541 14.8679 15.3744C14.0113 16.015 12.7673 15.6276 12.4396 14.6295C12.4247 14.5848 12.3651 14.4135 12.3651 14.406C12.3204 13.9889 12.6556 13.3706 12.5513 13.1397L9.74311 10.0336C9.4973 9.60156 9.8027 9.6388 9.82505 9.61646L9.8176 9.60901ZM13.7655 12.9908C12.7003 13.2142 12.7301 14.8976 13.8251 15.0615C15.5159 15.3222 15.4638 12.6332 13.7655 12.9908Z" fill="#E0E0DD"/>
<path d="M15.5833 13.6463C15.5684 13.5867 15.2406 13.1398 15.1736 13.0355C15.1215 12.961 15.1364 12.8269 15.1289 12.8195L17.4306 11.4117C17.885 11.2925 18.2574 11.9107 17.8626 12.2161L15.5833 13.6388V13.6463Z" fill="#312E2F"/>
<path d="M13.1847 12.6705C13.1847 12.6705 12.9612 13.1249 12.7378 13.0132C11.8737 11.9405 10.8309 11.0094 9.96683 9.94425C9.87745 9.83252 9.78806 9.77293 9.81786 9.60161C9.92214 9.46753 9.90724 9.15468 10.235 9.3707L13.1847 12.6705Z" fill="#312E2F"/>
<path d="M12.3653 14.3986C12.3653 14.3986 12.4249 14.5773 12.4398 14.622L8.09717 15.5978L8.28339 15.3744L12.3653 14.3986Z" fill="#A7A7A7"/>
<path d="M13.7659 12.9907C15.4642 12.6406 15.5238 15.3297 13.8255 15.0615C12.7305 14.8902 12.6933 13.2142 13.7659 12.9907Z" fill="#F3F3F3"/>
</svg>
