<svg width="54" height="54" viewBox="0 0 54 54" fill="none" xmlns="http://www.w3.org/2000/svg">
<rect width="54" height="54" rx="12" fill="#43C998"/>
<path d="M13.3166 27.7281L10.0761 22.9669H7.59375V31.5728H10.0946V26.8465L13.3166 31.5728H15.8236V22.9669H13.3166V27.7281Z" fill="white"/>
<path d="M20.2502 27.9274H24.3887V26.1725H20.2502V24.804H24.7113V22.9669H17.585V31.5728H24.8408V29.6227H20.2502V27.9274Z" fill="white"/>
<path d="M45.533 26.8754C45.1139 26.5055 44.2796 26.1541 43.0302 25.8212V24.0376C43.2439 24.1527 43.396 24.2657 43.4884 24.3787C43.5809 24.4917 43.6857 24.6952 43.7987 24.9849L46.092 24.6212C45.944 23.9636 45.6276 23.4458 45.1406 23.0677C44.6536 22.6896 43.9508 22.4718 43.0302 22.4142V21.9375H42.1302V22.4142C41.1191 22.4677 40.3588 22.741 39.8472 23.2321C39.3355 23.7232 39.0807 24.3356 39.0807 25.0671C39.0807 25.6014 39.2081 26.0555 39.4629 26.4274C39.7177 26.7994 40.0177 27.0706 40.365 27.2391C40.7123 27.4076 41.3 27.6069 42.1302 27.8371V30.0153C41.8425 29.8755 41.637 29.7153 41.5116 29.5344C41.3863 29.3536 41.2876 29.0597 41.2137 28.6529L38.7231 28.9426C38.7971 29.3536 38.9081 29.7029 39.056 29.9927C39.204 30.2824 39.4136 30.5516 39.6869 30.8023C39.9602 31.053 40.2849 31.2482 40.6609 31.39C41.037 31.5318 41.526 31.6284 42.1302 31.6818V32.1051H43.0302V31.6818C43.5357 31.6612 43.9631 31.5934 44.3124 31.4825C44.6618 31.3694 44.9906 31.1866 45.3008 30.9359C45.6111 30.6852 45.8659 30.3728 46.0653 29.9988C46.2646 29.6248 46.3632 29.2139 46.3632 28.7659C46.3632 28.0015 46.0858 27.3706 45.531 26.8733L45.533 26.8754ZM42.1322 25.5931C41.8712 25.5027 41.6904 25.3897 41.5856 25.2561C41.4808 25.1226 41.4294 24.9644 41.4294 24.7815C41.4294 24.5986 41.4808 24.4568 41.5836 24.3294C41.6863 24.202 41.8692 24.0931 42.1322 24.0068V25.5911V25.5931ZM43.7987 29.6927C43.6364 29.8714 43.3816 30.0009 43.0322 30.079V28.1001C43.4309 28.2398 43.7001 28.3919 43.8378 28.5542C43.9754 28.7166 44.0433 28.8954 44.0433 29.0885C44.0433 29.3104 43.9631 29.5118 43.8008 29.6906L43.7987 29.6927Z" fill="white"/>
<path d="M37.9224 22.9669H35.4093L35.0394 24.917H33.7037L33.1633 22.9669H30.646L30.1077 24.917H28.774L28.4062 22.9669H25.8808L26.3143 24.917H25.7842L26.0328 25.9095H26.5363L27.7959 31.5728H30.4036L31.9078 26.154L33.4181 31.5728H36.0258L37.2751 25.9095H37.945L38.1937 24.917H37.495L37.9245 22.9669H37.9224ZM29.3165 27.7835L28.9631 25.9074H29.8344L29.3165 27.7835ZM34.499 27.7774L33.9811 25.9074H34.8524L34.499 27.7774Z" fill="white"/>
</svg>
