<svg width="375" height="812" viewBox="0 0 375 812" fill="none" xmlns="http://www.w3.org/2000/svg">
<rect width="375" height="812" fill="#14BC7E"/>
<rect x="140" y="338" width="96" height="96" rx="10" fill="#14BC7E"/>
<path d="M183.511 374.923C183.964 373.818 184.237 372.606 184.237 371.423C184.237 369.081 183.263 366.966 181.701 365.461C180.213 364.026 178.186 363.141 175.955 363.141C173.723 363.141 171.7 364.026 170.209 365.461C169.585 366.063 169.058 366.761 168.647 367.53C168.643 367.53 168.64 367.53 168.636 367.526C165.455 373.934 162.277 380.343 159.096 386.751C157.945 389.071 156.79 391.395 155.625 393.708C154.512 395.919 153.092 398.023 153.092 400.577C153.092 405.15 156.801 408.859 161.374 408.859C163.113 408.859 164.831 408.303 166.238 407.283C167.265 406.535 167.949 405.519 168.604 404.456C170.06 402.086 171.275 399.596 172.508 397.109C173.489 395.129 174.47 393.152 175.452 391.172C178.123 385.78 181.212 380.491 183.507 374.93L183.511 374.923ZM168.431 367.965C168.431 367.965 168.427 367.976 168.423 367.98C168.423 367.976 168.427 367.969 168.431 367.965ZM169.624 401.339C169.624 401.339 169.624 401.314 169.624 401.3C169.624 401.314 169.624 401.325 169.624 401.339Z" fill="white"/>
<path d="M209.349 374.923C209.802 373.818 210.075 372.606 210.075 371.423C210.075 369.081 209.101 366.966 207.538 365.461C206.051 364.026 204.024 363.141 201.793 363.141C199.561 363.141 197.538 364.026 196.047 365.461C195.423 366.063 194.895 366.761 194.485 367.53C194.481 367.53 194.477 367.53 194.474 367.526C191.293 373.934 188.115 380.343 184.934 386.751C183.783 389.071 182.628 391.395 181.463 393.708C180.297 396.022 178.93 398.023 178.93 400.577C178.93 405.15 182.639 408.859 187.212 408.859C188.951 408.859 190.669 408.303 192.076 407.283C193.103 406.535 193.787 405.519 194.442 404.456C195.898 402.086 197.113 399.596 198.346 397.109C199.327 395.129 200.308 393.152 201.29 391.172C203.961 385.78 207.05 380.491 209.345 374.93L209.349 374.923ZM194.268 367.965C194.268 367.965 194.265 367.976 194.261 367.98C194.261 367.976 194.265 367.969 194.268 367.965ZM195.462 401.339C195.462 401.339 195.462 401.314 195.462 401.3C195.462 401.314 195.462 401.325 195.462 401.339Z" fill="white"/>
<path d="M213.896 408.858C218.762 408.858 222.706 404.914 222.706 400.048C222.706 395.183 218.762 391.238 213.896 391.238C209.03 391.238 205.086 395.183 205.086 400.048C205.086 404.914 209.03 408.858 213.896 408.858Z" fill="white"/>
<path d="M115.59 437.912V442.109H117.34V443.189H115.59V447.482H114.291V437.912H115.59ZM116.027 448.85V449.902H107.674V446.84H108.973V448.85H116.027ZM105.869 445.104C106.812 445.104 107.913 445.097 109.068 445.049V444.201C107.674 444.051 106.785 443.374 106.799 442.369C106.785 441.18 107.947 440.469 109.711 440.482C111.461 440.469 112.623 441.18 112.623 442.369C112.623 443.367 111.748 444.044 110.367 444.201V444.994C111.461 444.933 112.568 444.837 113.594 444.68L113.703 445.596C111.092 446.088 108.139 446.129 106.006 446.143L105.869 445.104ZM113.252 439.047V440.004H106.184V439.047H109.068V437.871H110.367V439.047H113.252ZM109.711 441.371C108.658 441.371 108.029 441.74 108.029 442.369C108.029 442.971 108.658 443.34 109.711 443.34C110.75 443.34 111.379 442.971 111.379 442.369C111.379 441.74 110.75 441.371 109.711 441.371ZM123.329 438.049C126.091 438.049 127.704 438.801 127.704 440.154C127.704 441.521 126.091 442.273 123.329 442.273C120.567 442.273 118.954 441.521 118.954 440.154C118.954 438.801 120.567 438.049 123.329 438.049ZM123.329 439.02C121.374 439.033 120.294 439.43 120.307 440.154C120.294 440.92 121.374 441.303 123.329 441.303C125.284 441.303 126.364 440.92 126.364 440.154C126.364 439.43 125.284 439.033 123.329 439.02ZM128.921 442.943V443.982H125.913V445.076H127.512V447.947H120.376V449.041H127.854V450.039H119.104V447.004H126.227V446.047H119.091V445.076H120.718V443.982H117.751V442.943H128.921ZM122.003 445.076H124.614V443.982H122.003V445.076ZM138.875 438.732V444.01H133.147V438.732H138.875ZM134.418 439.771V442.971H137.604V439.771H134.418ZM142.293 437.912V440.756H144.071V441.836H142.293V444.857H140.995V437.912H142.293ZM142.485 445.541V446.58H139.135C139.313 447.742 140.906 448.815 142.991 449.123L142.512 450.121C140.653 449.834 139.121 448.979 138.411 447.811C137.713 448.986 136.189 449.834 134.336 450.107L133.858 449.109C135.956 448.815 137.515 447.776 137.727 446.58H134.35V445.541H142.485ZM155.638 443.914V444.953H150.689V446.156H154.271V450.012H145.808V446.156H149.404V444.953H144.468V443.914H155.638ZM150.689 437.871V439.033H154.517V440.059H150.771C150.901 441.234 152.589 442.103 155.036 442.301L154.654 443.271C152.521 443.08 150.805 442.403 150.046 441.275C149.28 442.403 147.565 443.08 145.452 443.271L145.056 442.301C147.51 442.103 149.185 441.234 149.335 440.059H145.589V439.033H149.404V437.871H150.689ZM147.093 447.195V448.959H153.013V447.195H147.093ZM169.011 437.912V440.469H170.788V441.549H169.011V444.105H167.712V437.912H169.011ZM169.011 444.666V447.77H162.393V448.973H169.434V450.012H161.122V446.799H167.725V445.678H161.095V444.666H169.011ZM162.79 438.336C164.649 438.336 166.003 439.457 166.003 441.07C166.003 442.684 164.649 443.805 162.79 443.805C160.93 443.805 159.563 442.684 159.577 441.07C159.563 439.457 160.93 438.336 162.79 438.336ZM162.79 439.402C161.655 439.402 160.835 440.072 160.835 441.07C160.835 442.068 161.655 442.766 162.79 442.766C163.911 442.766 164.745 442.068 164.745 441.07C164.745 440.072 163.911 439.402 162.79 439.402ZM181.343 437.926V445.186H180.045V437.926H181.343ZM177.433 438.65V442.096H173.099V443.572C175.239 443.579 176.818 443.504 178.677 443.203L178.841 444.27C176.845 444.584 175.164 444.652 172.853 444.639H171.828V441.084H176.148V439.689H171.8V438.65H177.433ZM181.343 445.801V450.012H173.291V445.801H181.343ZM174.576 446.84V448.959H180.072V446.84H174.576ZM188.563 438.65C191.133 438.65 193.088 440.004 193.088 442.068C193.088 444.133 191.133 445.5 188.563 445.486C185.993 445.5 184.051 444.133 184.051 442.068C184.051 440.004 185.993 438.65 188.563 438.65ZM188.563 439.703C186.69 439.689 185.282 440.646 185.295 442.068C185.282 443.504 186.69 444.42 188.563 444.42C190.436 444.42 191.83 443.504 191.83 442.068C191.83 440.646 190.436 439.689 188.563 439.703ZM194.196 447.496V448.576H182.985V447.496H194.196ZM205.995 447.605V448.699H194.784V447.605H199.72V445.459H196.152V441.562H203.343V439.84H196.124V438.773H204.628V442.602H197.437V444.393H204.915V445.459H201.005V447.605H205.995Z" fill="#B6EAD7"/>
<path d="M217.295 439.553C217.295 441.467 219.168 443.381 221.752 443.832L221.068 445.104C218.997 444.666 217.302 443.415 216.502 441.754C215.682 443.401 213.986 444.659 211.922 445.104L211.252 443.832C213.809 443.367 215.668 441.453 215.682 439.553V438.637H217.295V439.553ZM222.203 447.387V448.645H210.91V447.387H222.203ZM228.999 439.061V447.154H223.147V439.061H228.999ZM224.637 440.25V445.938H227.481V440.25H224.637ZM232.389 437.857V442.602H234.29V443.887H232.389V450.217H230.872V437.857H232.389ZM244.558 444.338V445.541H235.89V438.828H244.449V440.059H237.435V441.549H244.162V442.738H237.435V444.338H244.558ZM245.802 447.469V448.713H234.509V447.469H245.802ZM255.989 437.857V442.779H257.889V444.037H255.989V450.217H254.485V437.857H255.989ZM253.528 439.758V440.975H246.241V439.758H249.166V438.035H250.684V439.758H253.528ZM249.932 441.781C251.709 441.781 253.036 442.984 253.036 444.693C253.036 446.402 251.709 447.592 249.932 447.592C248.127 447.592 246.801 446.402 246.815 444.693C246.801 442.984 248.127 441.781 249.932 441.781ZM249.932 443.025C248.961 443.025 248.264 443.682 248.264 444.693C248.264 445.705 248.961 446.348 249.932 446.334C250.875 446.348 251.573 445.705 251.586 444.693C251.573 443.682 250.875 443.025 249.932 443.025ZM268.773 437.857V450.217H267.323V437.857H268.773ZM266.148 438.158V449.629H264.712V443.941H262.511C261.786 445.363 260.624 446.594 258.874 447.605L258.013 446.525C260.576 445.015 261.745 443.08 261.978 440.592H258.642V439.361H263.482C263.482 440.558 263.338 441.679 263.003 442.725H264.712V438.158H266.148Z" fill="white"/>
<rect x="128" y="801" width="119" height="4" rx="2" fill="white"/>
</svg>
