<svg width="18" height="18" viewBox="0 0 18 18" fill="none" xmlns="http://www.w3.org/2000/svg">
<rect width="18" height="18" fill="white"/>
<path fill-rule="evenodd" clip-rule="evenodd" d="M17.28 9.19603C17.28 8.58444 17.2251 7.99637 17.1232 7.43182H9V10.7681H13.6418C13.4419 11.8463 12.8342 12.7597 11.9207 13.3713V15.5354H14.7082C16.3391 14.0339 17.28 11.8227 17.28 9.19603Z" fill="#4285F4"/>
<path fill-rule="evenodd" clip-rule="evenodd" d="M9.00058 17.6249C11.3293 17.6249 13.2817 16.8525 14.7088 15.5353L11.9213 13.3712C11.149 13.8887 10.161 14.1945 9.00058 14.1945C6.75416 14.1945 4.85274 12.6772 4.1745 10.6386H1.29297V12.8733C2.71217 15.6921 5.62899 17.6249 9.00058 17.6249Z" fill="#34A853"/>
<path fill-rule="evenodd" clip-rule="evenodd" d="M4.17392 10.6388C4.00142 10.1213 3.90341 9.56852 3.90341 9.00006C3.90341 8.43159 4.00142 7.87881 4.17392 7.36131V5.12665H1.29239C0.708239 6.29102 0.375 7.6083 0.375 9.00006C0.375 10.3918 0.708239 11.7091 1.29239 12.8735L4.17392 10.6388Z" fill="#FBBC05"/>
<path fill-rule="evenodd" clip-rule="evenodd" d="M9.00058 3.8054C10.2669 3.8054 11.4038 4.24057 12.2977 5.09523L14.7715 2.62142C13.2778 1.22966 11.3254 0.375 9.00058 0.375C5.62899 0.375 2.71217 2.30778 1.29297 5.12659L4.1745 7.36125C4.85274 5.32261 6.75416 3.8054 9.00058 3.8054Z" fill="#EA4335"/>
</svg>
