<svg width="21" height="20" viewBox="0 0 21 20" fill="none" xmlns="http://www.w3.org/2000/svg">
<path d="M10.6364 13.7727C11.1364 13.7727 11.5644 13.6553 11.9205 13.4205C12.2765 13.1856 12.4545 12.8182 12.4545 12.3182C12.4545 11.8788 12.2689 11.5227 11.8977 11.25C11.5265 10.9773 10.8636 10.6667 9.90909 10.3182C9.01515 10 8.35985 9.62121 7.94318 9.18182C7.52652 8.74242 7.31818 8.16667 7.31818 7.45455C7.31818 6.83333 7.53409 6.26894 7.96591 5.76136C8.39773 5.25379 8.98485 4.92424 9.72727 4.77273V4.43182C9.72727 4.2197 9.80682 4.03409 9.96591 3.875C10.125 3.71591 10.3106 3.63636 10.5227 3.63636C10.7348 3.63636 10.9205 3.71591 11.0795 3.875C11.2386 4.03409 11.3182 4.2197 11.3182 4.43182V4.77273C11.7576 4.80303 12.1629 4.95076 12.5341 5.21591C12.9053 5.48106 13.2045 5.80303 13.4318 6.18182C13.5379 6.34849 13.5455 6.52652 13.4545 6.71591C13.3636 6.9053 13.2121 7.03788 13 7.11364C12.803 7.18939 12.6061 7.19697 12.4091 7.13636C12.2121 7.07576 12.053 6.96212 11.9318 6.79545C11.7803 6.61364 11.5909 6.46591 11.3636 6.35227C11.1364 6.23864 10.8636 6.18182 10.5455 6.18182C10.0152 6.18182 9.60985 6.29545 9.32955 6.52273C9.04924 6.75 8.90909 7.06061 8.90909 7.45455C8.90909 7.84848 9.08333 8.15909 9.43182 8.38636C9.7803 8.61364 10.4091 8.87879 11.3182 9.18182C12.4091 9.57576 13.1364 10.0379 13.5 10.5682C13.8636 11.0985 14.0455 11.6818 14.0455 12.3182C14.0455 12.7576 13.9697 13.1439 13.8182 13.4773C13.6667 13.8106 13.4659 14.0947 13.2159 14.3295C12.9659 14.5644 12.6742 14.7538 12.3409 14.8977C12.0076 15.0417 11.6515 15.1515 11.2727 15.2273V15.5682C11.2727 15.7803 11.1932 15.9659 11.0341 16.125C10.875 16.2841 10.6894 16.3636 10.4773 16.3636C10.2652 16.3636 10.0795 16.2841 9.92045 16.125C9.76136 15.9659 9.68182 15.7803 9.68182 15.5682V15.1818C9.10606 15.0606 8.61364 14.8333 8.20455 14.5C7.79546 14.1667 7.4697 13.7424 7.22727 13.2273C7.13636 13.0152 7.14015 12.8106 7.23864 12.6136C7.33712 12.4167 7.49242 12.2803 7.70455 12.2045C7.90152 12.1288 8.09848 12.1326 8.29545 12.2159C8.49242 12.2992 8.64394 12.4318 8.75 12.6136C8.96212 13.0076 9.23106 13.2992 9.55682 13.4886C9.88258 13.678 10.2424 13.7727 10.6364 13.7727ZM10.5 20C8.80303 20 7.24242 19.6136 5.81818 18.8409C4.39394 18.0682 3.22727 17.0379 2.31818 15.75V17.2727C2.31818 17.5303 2.23106 17.7462 2.05682 17.9205C1.88258 18.0947 1.66667 18.1818 1.40909 18.1818C1.15152 18.1818 0.935606 18.0947 0.761364 17.9205C0.587121 17.7462 0.5 17.5303 0.5 17.2727V13.6364C0.5 13.3788 0.587121 13.1629 0.761364 12.9886C0.935606 12.8144 1.15152 12.7273 1.40909 12.7273H5.04545C5.30303 12.7273 5.51894 12.8144 5.69318 12.9886C5.86742 13.1629 5.95455 13.3788 5.95455 13.6364C5.95455 13.8939 5.86742 14.1098 5.69318 14.2841C5.51894 14.4583 5.30303 14.5455 5.04545 14.5455H3.70455C4.43182 15.6364 5.39015 16.5152 6.57955 17.1818C7.76894 17.8485 9.07576 18.1818 10.5 18.1818C12.6364 18.1818 14.4735 17.4697 16.0114 16.0455C17.5492 14.6212 18.4242 12.8712 18.6364 10.7955C18.6667 10.553 18.7727 10.3598 18.9545 10.2159C19.1364 10.072 19.3485 10 19.5909 10C19.8485 10 20.0682 10.0795 20.25 10.2386C20.4318 10.3977 20.5076 10.5909 20.4773 10.8182C20.3712 12.1061 20.0379 13.3068 19.4773 14.4205C18.9167 15.5341 18.1894 16.5038 17.2955 17.3295C16.4015 18.1553 15.375 18.8068 14.2159 19.2841C13.0568 19.7614 11.8182 20 10.5 20ZM10.5 1.81818C8.36364 1.81818 6.52652 2.5303 4.98864 3.95455C3.45076 5.37879 2.57576 7.12879 2.36364 9.20455C2.33333 9.44697 2.22727 9.64015 2.04545 9.78409C1.86364 9.92803 1.65152 10 1.40909 10C1.15152 10 0.931818 9.92046 0.75 9.76136C0.568182 9.60227 0.492424 9.40909 0.522727 9.18182C0.628788 7.89394 0.962121 6.69318 1.52273 5.57955C2.08333 4.46591 2.81061 3.49621 3.70455 2.67045C4.59849 1.8447 5.625 1.19318 6.78409 0.715909C7.94318 0.238636 9.18182 0 10.5 0C12.197 0 13.7576 0.386364 15.1818 1.15909C16.6061 1.93182 17.7727 2.96212 18.6818 4.25V2.72727C18.6818 2.4697 18.7689 2.25379 18.9432 2.07955C19.1174 1.9053 19.3333 1.81818 19.5909 1.81818C19.8485 1.81818 20.0644 1.9053 20.2386 2.07955C20.4129 2.25379 20.5 2.4697 20.5 2.72727V6.36364C20.5 6.62121 20.4129 6.83712 20.2386 7.01136C20.0644 7.18561 19.8485 7.27273 19.5909 7.27273H15.9545C15.697 7.27273 15.4811 7.18561 15.3068 7.01136C15.1326 6.83712 15.0455 6.62121 15.0455 6.36364C15.0455 6.10606 15.1326 5.89015 15.3068 5.71591C15.4811 5.54167 15.697 5.45455 15.9545 5.45455H17.2955C16.5682 4.36364 15.6098 3.48485 14.4205 2.81818C13.2311 2.15152 11.9242 1.81818 10.5 1.81818Z" fill="#9D9D9D"/>
</svg>
