<svg width="21" height="21" viewBox="0 0 21 21" fill="none" xmlns="http://www.w3.org/2000/svg">
<path d="M4.295 15.5436C5.13286 14.9029 6.06929 14.3977 7.10429 14.0281C8.13929 13.6584 9.22357 13.4736 10.3571 13.4736C11.4907 13.4736 12.575 13.6584 13.61 14.0281C14.645 14.3977 15.5814 14.9029 16.4193 15.5436C16.9943 14.87 17.442 14.1061 17.7623 13.2518C18.0827 12.3975 18.2429 11.4857 18.2429 10.5164C18.2429 8.33144 17.4748 6.47091 15.9388 4.93484C14.4027 3.39877 12.5421 2.63073 10.3571 2.63073C8.17214 2.63073 6.31161 3.39877 4.77554 4.93484C3.23946 6.47091 2.47143 8.33144 2.47143 10.5164C2.47143 11.4857 2.63161 12.3975 2.95196 13.2518C3.27232 14.1061 3.72 14.87 4.295 15.5436ZM10.3571 11.5022C9.38786 11.5022 8.57054 11.1695 7.90518 10.5041C7.23982 9.83877 6.90714 9.02144 6.90714 8.05216C6.90714 7.08287 7.23982 6.26555 7.90518 5.6002C8.57054 4.93484 9.38786 4.60216 10.3571 4.60216C11.3264 4.60216 12.1438 4.93484 12.8091 5.6002C13.4745 6.26555 13.8071 7.08287 13.8071 8.05216C13.8071 9.02144 13.4745 9.83877 12.8091 10.5041C12.1438 11.1695 11.3264 11.5022 10.3571 11.5022ZM10.3571 20.3736C8.99357 20.3736 7.71214 20.1148 6.51286 19.5973C5.31357 19.0798 4.27036 18.3775 3.38321 17.4904C2.49607 16.6032 1.79375 15.56 1.27625 14.3607C0.75875 13.1614 0.5 11.88 0.5 10.5164C0.5 9.15287 0.75875 7.87144 1.27625 6.67216C1.79375 5.47287 2.49607 4.42966 3.38321 3.54252C4.27036 2.65537 5.31357 1.95305 6.51286 1.43555C7.71214 0.918052 8.99357 0.659302 10.3571 0.659302C11.7207 0.659302 13.0021 0.918052 14.2014 1.43555C15.4007 1.95305 16.4439 2.65537 17.3311 3.54252C18.2182 4.42966 18.9205 5.47287 19.438 6.67216C19.9555 7.87144 20.2143 9.15287 20.2143 10.5164C20.2143 11.88 19.9555 13.1614 19.438 14.3607C18.9205 15.56 18.2182 16.6032 17.3311 17.4904C16.4439 18.3775 15.4007 19.0798 14.2014 19.5973C13.0021 20.1148 11.7207 20.3736 10.3571 20.3736ZM10.3571 18.4022C11.2279 18.4022 12.0493 18.2748 12.8214 18.0202C13.5936 17.7656 14.3 17.4 14.9407 16.9236C14.3 16.4472 13.5936 16.0816 12.8214 15.827C12.0493 15.5723 11.2279 15.445 10.3571 15.445C9.48643 15.445 8.665 15.5723 7.89286 15.827C7.12071 16.0816 6.41429 16.4472 5.77357 16.9236C6.41429 17.4 7.12071 17.7656 7.89286 18.0202C8.665 18.2748 9.48643 18.4022 10.3571 18.4022ZM10.3571 9.53073C10.7843 9.53073 11.1375 9.39109 11.4168 9.1118C11.6961 8.83252 11.8357 8.4793 11.8357 8.05216C11.8357 7.62502 11.6961 7.2718 11.4168 6.99252C11.1375 6.71323 10.7843 6.57359 10.3571 6.57359C9.93 6.57359 9.57679 6.71323 9.2975 6.99252C9.01821 7.2718 8.87857 7.62502 8.87857 8.05216C8.87857 8.4793 9.01821 8.83252 9.2975 9.1118C9.57679 9.39109 9.93 9.53073 10.3571 9.53073Z" fill="#9D9D9D"/>
</svg>
