<svg width="53" height="53" viewBox="0 0 53 53" fill="none" xmlns="http://www.w3.org/2000/svg">
<circle cx="26.5" cy="26.5" r="26.5" fill="#14BC7E"/>
<path d="M23.4562 31.0324L37.0089 17.4797C37.3288 17.1599 37.7019 17 38.1283 17C38.5548 17 38.9279 17.1599 39.2477 17.4797C39.5676 17.7996 39.7275 18.1794 39.7275 18.6191C39.7275 19.0589 39.5676 19.4387 39.2477 19.7585L24.5756 34.4706C24.2558 34.7904 23.8827 34.9503 23.4562 34.9503C23.0298 34.9503 22.6567 34.7904 22.3368 34.4706L15.4606 27.5943C15.1407 27.2745 14.9875 26.8947 15.0008 26.4549C15.0141 26.0151 15.1807 25.6353 15.5005 25.3155C15.8204 24.9957 16.2002 24.8358 16.6399 24.8358C17.0797 24.8358 17.4595 24.9957 17.7793 25.3155L23.4562 31.0324Z" fill="white"/>
</svg>
