<svg width="104" height="104" viewBox="0 0 104 104" fill="none" xmlns="http://www.w3.org/2000/svg">
<rect width="104" height="104" rx="10" fill="white"/>
<path d="M47.1374 39.9994C47.6286 38.8021 47.9241 37.4896 47.9241 36.2078C47.9241 33.6711 46.8688 31.3801 45.1764 29.7491C43.5646 28.1948 41.3694 27.2354 38.9517 27.2354C36.534 27.2354 34.3427 28.1948 32.7271 29.7491C32.0516 30.4015 31.4798 31.1575 31.0347 31.9902C31.0308 31.9902 31.027 31.9902 31.0232 31.9864C27.577 38.9287 24.1346 45.871 20.6884 52.8133C19.4412 55.3269 18.1901 57.8444 16.9275 60.3504C15.7225 62.7451 14.1836 65.0246 14.1836 67.7916C14.1836 72.746 18.2016 76.764 23.156 76.764C25.0403 76.764 26.9015 76.1615 28.4251 75.0562C29.538 74.2465 30.2786 73.1451 30.9886 71.9938C32.5659 69.4264 33.8822 66.7286 35.2177 64.0345C36.2807 61.8893 37.3437 59.7479 38.4068 57.6026C41.3003 51.7618 44.6468 46.0322 47.1336 40.0071L47.1374 39.9994ZM30.8006 32.4623C30.8006 32.4623 30.7967 32.4738 30.7929 32.4776C30.7929 32.4738 30.7967 32.4661 30.8006 32.4623ZM32.0939 68.6167C32.0939 68.6167 32.0939 68.5898 32.0939 68.5745C32.0939 68.5898 32.0939 68.6013 32.0939 68.6167Z" fill="#14BC7E"/>
<path d="M75.1276 39.9992C75.6188 38.8019 75.9143 37.4894 75.9143 36.2076C75.9143 33.6709 74.859 31.3799 73.1666 29.7489C71.5548 28.1946 69.3597 27.2352 66.9419 27.2352C64.5242 27.2352 62.3329 28.1946 60.7173 29.7489C60.0419 30.4013 59.4701 31.1573 59.0249 31.9901C59.0211 31.9901 59.0172 31.9901 59.0134 31.9862C55.5672 38.9285 52.1248 45.8708 48.6786 52.8131C47.4314 55.3267 46.1803 57.8442 44.9177 60.3502C43.6552 62.8562 42.1738 65.0245 42.1738 67.7914C42.1738 72.7458 46.1918 76.7638 51.1462 76.7638C53.0305 76.7638 54.8918 76.1613 56.4153 75.056C57.5282 74.2463 58.2689 73.1449 58.9788 71.9936C60.5561 69.4262 61.8724 66.7284 63.2079 64.0343C64.271 61.8891 65.334 59.7477 66.397 57.6025C69.2906 51.7616 72.637 46.032 75.1238 40.0069L75.1276 39.9992ZM58.7908 32.4621C58.7908 32.4621 58.787 32.4736 58.7831 32.4774C58.7831 32.4736 58.787 32.4659 58.7908 32.4621ZM60.0841 68.6165C60.0841 68.6165 60.0841 68.5896 60.0841 68.5743C60.0841 68.5896 60.0841 68.6011 60.0841 68.6165Z" fill="#14BC7E"/>
<path d="M80.054 76.7638C85.3251 76.7638 89.5982 72.4907 89.5982 67.2196C89.5982 61.9485 85.3251 57.6754 80.054 57.6754C74.7829 57.6754 70.5098 61.9485 70.5098 67.2196C70.5098 72.4907 74.7829 76.7638 80.054 76.7638Z" fill="#14BC7E"/>
</svg>
