<svg width="28" height="28" viewBox="0 0 28 28" fill="none" xmlns="http://www.w3.org/2000/svg">
<path d="M22.8827 0H5.11732C2.2911 0 0 2.2911 0 5.11732V22.8827C0 25.7089 2.2911 28 5.11732 28H22.8827C25.7089 28 28 25.7089 28 22.8827V5.11732C28 2.2911 25.7089 0 22.8827 0Z" fill="#F3F3F3"/>
<path d="M19.8209 18.987C19.7389 18.5252 19.4112 18.0782 19.1728 17.6686C18.6514 16.7673 18.8004 15.7468 18.6886 14.7635C18.5322 12.879 18.4801 10.6965 16.9456 9.36316C16.3497 8.8492 15.657 8.68532 14.9866 8.46186C14.778 8.32778 14.6886 7.98514 14.4279 7.82126C14.2194 7.66484 13.9512 7.5829 13.6831 7.5978C13.1542 7.60525 12.8413 8.00003 12.5955 8.38737C12.3348 8.62573 11.94 8.58849 11.5899 8.75236C10.8749 9.01307 10.2715 9.50469 9.86927 10.1229C8.58808 12.149 9.00521 14.8008 8.58063 17.0652C8.39441 17.9367 6.8972 19.2254 8.20819 19.8809C8.70726 20.082 9.29572 20.0298 9.82458 20.0447C11.6793 20.0447 13.5415 20.0447 15.3963 20.0447C16.3944 20.0447 17.4074 20.0522 18.346 20.0447C18.9642 20.0596 19.9177 19.8362 19.8209 19.054V19.0019V18.987Z" fill="#14BC7E"/>
<path d="M15.2332 20.8195C14.1308 20.8195 12.9911 20.8195 11.8887 20.8195C11.6131 20.7823 11.7621 21.0281 11.8366 21.1845C12.142 21.7506 12.7006 22.1454 13.3263 22.272C13.9073 22.354 14.533 22.272 15.0098 21.9145C15.3077 21.6761 15.6578 21.3261 15.7695 20.9462C15.7993 20.7301 15.3897 20.8493 15.2779 20.8195H15.2332Z" fill="#14BC7E"/>
<path d="M22.0188 7.57554C22.0188 7.57554 22.0337 7.57554 22.0411 7.58299C22.3391 7.73942 22.8307 7.85115 23.084 8.02247C23.2255 8.1193 23.2106 8.29807 23.0914 8.40981L20.0002 10.3167C19.7916 10.4284 19.5979 10.2348 19.665 10.0187L20.6184 8.49174L19.5235 8.03737C19.5235 8.03737 19.449 7.94798 19.4415 7.93308C19.4043 7.8437 19.4415 7.73942 19.5086 7.67238L22.6519 5.72824C22.8531 5.66865 22.9946 5.83253 22.9499 6.02619L22.0709 7.42657L22.0039 7.58299L22.0188 7.57554Z" fill="#BDBCB8"/>
<path d="M5.4744 11.8659C5.4744 11.8659 5.46696 11.8659 5.45951 11.8659C5.29563 11.9702 5.01258 12.0521 4.87105 12.1638C4.78912 12.2234 4.81146 12.3277 4.8785 12.3873L6.7556 13.3631C6.88223 13.4227 6.98651 13.2961 6.93437 13.1769L6.31612 12.3277L6.93437 12.0223C6.93437 12.0223 6.97161 11.9627 6.97906 11.9553C7.00141 11.9031 6.97161 11.8435 6.92692 11.8063L5.02003 10.8082C4.90085 10.7858 4.82636 10.8827 4.85615 10.9944L5.42226 11.7691L5.46696 11.8584L5.4744 11.8659Z" fill="#E0E0DD"/>
</svg>
