<svg width="15" height="18" viewBox="0 0 15 18" fill="none" xmlns="http://www.w3.org/2000/svg">
<path d="M14.4599 13.818C14.199 14.4206 13.8902 14.9754 13.5324 15.4854C13.0448 16.1807 12.6455 16.662 12.3378 16.9293C11.8607 17.368 11.3496 17.5926 10.8023 17.6054C10.4094 17.6054 9.93561 17.4936 9.38405 17.2668C8.83068 17.0411 8.32214 16.9293 7.85715 16.9293C7.36948 16.9293 6.84646 17.0411 6.28702 17.2668C5.72674 17.4936 5.27537 17.6118 4.93028 17.6235C4.40545 17.6459 3.88232 17.4148 3.36015 16.9293C3.02687 16.6386 2.61001 16.1403 2.11063 15.4343C1.57483 14.6805 1.13433 13.8063 0.789233 12.8096C0.419647 11.7331 0.234375 10.6907 0.234375 9.68151C0.234375 8.52548 0.484173 7.52842 0.984514 6.69288C1.37774 6.02175 1.90087 5.49234 2.5556 5.1037C3.21034 4.71505 3.91778 4.517 4.67963 4.50433C5.09649 4.50433 5.64315 4.63328 6.32248 4.8867C6.9999 5.14097 7.43486 5.26991 7.62556 5.26991C7.76814 5.26991 8.25133 5.11914 9.07047 4.81855C9.8451 4.53979 10.4989 4.42437 11.0345 4.46983C12.4858 4.58696 13.5761 5.15907 14.3012 6.18977C13.0032 6.97622 12.3612 8.07774 12.374 9.49081C12.3857 10.5915 12.785 11.5074 13.5697 12.2346C13.9253 12.5722 14.3225 12.8331 14.7644 13.0183C14.6686 13.2962 14.5674 13.5624 14.4599 13.818ZM11.1314 0.720098C11.1314 1.58279 10.8162 2.38829 10.188 3.13385C9.42984 4.02018 8.51285 4.53234 7.51845 4.45152C7.50577 4.34802 7.49843 4.23909 7.49843 4.12463C7.49843 3.29644 7.85896 2.41012 8.49922 1.68543C8.81886 1.31851 9.2254 1.01341 9.71839 0.770036C10.2103 0.530289 10.6756 0.397705 11.1133 0.375C11.126 0.490329 11.1314 0.605665 11.1314 0.720087V0.720098Z" fill="black"/>
</svg>
